<svg width="250" height="75" viewBox="0 0 250 75" xmlns="http://www.w3.org/2000/svg">
  <defs>
    <linearGradient id="swagText" x1="0%" y1="0%" x2="0%" y2="100%">
      <stop offset="0%" style="stop-color:#2d3436;stop-opacity:1" />
      <stop offset="100%" style="stop-color:#000000;stop-opacity:1" />
    </linearGradient>
  </defs>

  <!-- 1. THE EMOJI (64x64) -->
  <g>
      <circle cx="32" cy="32" r="30" fill="#FFC312" stroke="#F79F1F" stroke-width="2"/>
      
      <!-- Glasses (Corrected Alignment) -->
      <g transform="translate(5, 22) scale(0.45)">
        <path d="M0 0 L55 0 L55 15 L40 15 L40 25 L15 25 L15 15 L0 15 Z" fill="#2d3436"/>
        <path d="M65 0 L120 0 L120 15 L105 15 L105 25 L80 25 L80 15 L65 15 Z" fill="#2d3436"/>
        <rect x="55" y="5" width="10" height="5" fill="#2d3436"/>
        <!-- Glare -->
        <rect x="5" y="2" width="15" height="5" fill="white" opacity="0.9"/>
        <rect x="10" y="7" width="5" height="5" fill="white" opacity="0.9"/>
        <rect x="70" y="2" width="15" height="5" fill="white" opacity="0.9"/>
        <rect x="75" y="7" width="5" height="5" fill="white" opacity="0.9"/>
      </g>
      
      <path d="M22 50 Q32 55 42 50" stroke="#2d3436" stroke-width="3" fill="none" stroke-linecap="round"/>
  </g>

  <!-- 2. THE TEXT -->
  <text x="70" y="54" font-family="Arial, 'Arial Black', sans-serif" font-weight="900" font-size="52" fill="url(#swagText)" letter-spacing="-2" style="font-style:italic">FEKU</text>
  
  <!-- 3. GRAFFITI UNDERLINE (Matches Icon Color) -->
  <!-- Swoosh shape -->
  <path d="M72 65 Q140 70 215 58" stroke="#FFC312" stroke-width="5" fill="none" stroke-linecap="round"/>
  
  <!-- 4. ACCENT SPLASH -->
  <path d="M225 10 L235 25 L245 5" stroke="#0984e3" stroke-width="4" fill="none" stroke-linecap="round" stroke-linejoin="round"/>
</svg>
